<svg xmlns="http://www.w3.org/2000/svg" width="18" height="18" viewBox="0 0 24 26">
    <path fill="#0083BF" fill-rule="evenodd" stroke="#0684BD" stroke-width=".9" d="M6.656 17.651C.942 10.547.28 4.627 2.545 2.607c.592-.522 2.16-1.323 2.892-1.427.801-.14 1.602.243 2.02 1.01.802 1.636 1.777 3.238 2.788 4.805.452.697.348 1.567-.244 2.16-.349.348-.767.557-1.15.765a3.18 3.18 0 0 0-.801.523s-.105.104-.105.313c-.035.453.035 1.707 2.02 4.214 2.16 2.647 3.45 2.82 3.798 2.82.14 0 .244-.034.244-.034.244-.21.453-.453.662-.697.314-.348.593-.696 1.01-.975.697-.452 1.638-.348 2.16.21 1.325 1.323 2.753 2.576 4.112 3.76.662.557.906 1.428.557 2.16-.244.66-1.359 2.02-2.02 2.541-.558.488-1.324.697-2.195.697-3.345 0-7.7-2.925-11.637-7.8z"/>
</svg>
